<?xml version="1.0" encoding="iso-8859-1"?>
<!-- Generator: Adobe Illustrator 19.0.0, SVG Export Plug-In . SVG Version: 6.00 Build 0)  -->
<svg version="1.1" id="Capa_1" xmlns="http://www.w3.org/2000/svg" xmlns:xlink="http://www.w3.org/1999/xlink" x="0px" y="0px"
	 viewBox="0 0 480 480" style="enable-background:new 0 0 480 480;" xml:space="preserve">
<path style="fill:#846328;" d="M149.353,144H200v-16h-35.878l9.757-10.57l-11.758-10.859L152,117.535V88h-16v46.868L75.878,200
	l-28.996-9.964l0.809-0.231l-16-56l-15.383,4.391l12.92,45.22l-18.42-6.908l-5.617,14.984L64,213.545V472h16V278.366l96-22.154
	v-16.064c-0.522-0.052-1.049-0.05-1.57,0.008l-26.48,5.297l11.641-34.922l-15.18-5.063l-15.023,45.078L80,261.942v-42.81
	L149.353,144z"/>
<path style="fill:#EEEEED;" d="M424,32c-5.013-18.193-21.151-31.103-40-32c-19.813,0-35.633,8.703-40,24
	c-12.172,0.164-28.641,6.789-32,16c-0.922-0.07,0.938,0,0,0c-17.113,1.284-30.716,14.887-32,32c0,14.734,15.094,24,32,24h104
	c21.492-0.734,40-13.328,40-32C456,46.93,442.867,34.883,424,32z"/>
<g>
	<path style="fill:#6CC3E1;" d="M329.656,145.648l-11.312-11.312L304,148.68V128h-16v20.68l-14.344-14.344l-11.312,11.312
		l14.344,14.344H256v16h20.696l-14.352,14.352l11.312,11.312L288,187.312V208h16v-20.688l14.344,14.344l11.312-11.312
		l-14.352-14.352H336v-16h-20.688L329.656,145.648z"/>
	<path style="fill:#6CC3E1;" d="M464,200h-20.68l14.336-14.336l-11.312-11.312L432,188.696V168h-16v20.696l-14.344-14.344
		l-11.312,11.312L404.68,200H384v16h20.696l-14.352,14.352l11.312,11.312L416,227.32V248h16v-20.68l14.344,14.344l11.312-11.312
		L443.304,216H464V200z"/>
</g>
<g>
	<path style="fill:#846328;" d="M104.004,392.148l9.138-13.127l24.891,17.328l-9.138,13.127L104.004,392.148z"/>
	<path style="fill:#846328;" d="M191.109,396.328l24.888-17.332l9.141,13.125l-24.888,17.332L191.109,396.328z"/>
</g>
<path style="fill:#DB735C;" d="M164.568,304l-16,48h32L164.568,304z"/>
<path style="fill:#DDDDD9;" d="M447.908,43.663C446.94,64.901,425.547,79.152,400.727,80H281.812
	c6.135,10.71,17.882,16.936,30.188,16h104c21.492-0.734,40-13.328,40-32C456.061,56.424,453.156,49.125,447.908,43.663z"/>
<path style="fill:#EDE783;" d="M336,344h112v128H336V344z"/>
<path style="fill:#EAB744;" d="M392,280l-80,80h160L392,280z"/>
<path style="fill:#BCE7ED;" d="M312,368v16c0,4.418,3.582,8,8,8s8-3.582,8-8v-16h96v16c0,4.418,3.582,8,8,8s8-3.582,8-8v-8
	c0-4.418,3.582-8,8-8s8,3.582,8,8s3.582,8,8,8s8-3.582,8-8v-16H312V368z"/>
<path style="fill:#EAE9D3;" d="M179.247,386.867c10.487-8.106,12.418-23.179,4.312-33.666c-8.106-10.487-23.179-12.418-33.666-4.312
	c-10.487,8.106-12.418,23.179-4.312,33.666c1.248,1.615,2.697,3.064,4.312,4.312c-20.551,8.106-30.639,31.336-22.533,51.887
	s31.337,30.639,51.887,22.533s30.639-31.336,22.533-51.887C197.714,399.092,189.555,390.933,179.247,386.867z"/>
<path style="fill:#BCE7ED;" d="M152,144h48v32c0,4.418-3.582,8-8,8s-8-3.582-8-8v-8c0-4.418-3.582-8-8-8s-8,3.582-8,8s-3.582,8-8,8
	s-8-3.582-8-8V144z"/>
<path style="fill:#D3DFE0;" d="M0,464h480v16H0V464z"/>
<g>
</g>
<g>
</g>
<g>
</g>
<g>
</g>
<g>
</g>
<g>
</g>
<g>
</g>
<g>
</g>
<g>
</g>
<g>
</g>
<g>
</g>
<g>
</g>
<g>
</g>
<g>
</g>
<g>
</g>
</svg>
