<?xml version="1.0" encoding="iso-8859-1"?>
<!-- Generator: Adobe Illustrator 19.0.0, SVG Export Plug-In . SVG Version: 6.00 Build 0)  -->
<svg version="1.1" id="Capa_1" xmlns="http://www.w3.org/2000/svg" xmlns:xlink="http://www.w3.org/1999/xlink" x="0px" y="0px"
	 viewBox="0 0 480.007 480.007" style="enable-background:new 0 0 480.007 480.007;" xml:space="preserve">
<g>
	<path style="fill:#45B9D8;" d="M373.627,216.003H4.002v-16h369.625c53.281,0,86.375-24.523,86.375-64
		c0.293-34.992-27.79-63.62-62.781-64v-16c43.824,0.389,79.065,36.175,78.781,80C476.002,184.601,435.815,216.003,373.627,216.003z"
		/>
	<path style="fill:#45B9D8;" d="M306.979,112.003H4.002v-16h302.977c22.362,0.252,40.711-17.639,41.023-40
		c0.236-21.855-17.29-39.764-39.145-40c-0.285-0.003-0.57-0.003-0.855,0v-16c30.598-0.33,55.67,24.208,56,54.806
		c0.004,0.398,0.004,0.796,0,1.194C363.683,87.198,338.175,112.249,306.979,112.003z"/>
	<path style="fill:#45B9D8;" d="M397.221,424.003v-16c34.991-0.38,63.074-29.008,62.781-64c0-39.477-33.094-64-86.375-64H4.002v-16
		h369.625c62.187,0,102.375,31.402,102.375,80C476.286,387.828,441.045,423.614,397.221,424.003z"/>
	<path style="fill:#45B9D8;" d="M308.002,480.003v-16c21.855,0.236,39.764-17.29,40-39.145c0.003-0.285,0.003-0.57,0-0.855
		c-0.313-22.361-18.662-40.252-41.023-40H4.002v-16h302.977c31.196-0.246,56.704,24.805,57.023,56
		c0.33,30.598-24.208,55.67-54.806,56C308.798,480.008,308.4,480.008,308.002,480.003z"/>
</g>
<g>
</g>
<g>
</g>
<g>
</g>
<g>
</g>
<g>
</g>
<g>
</g>
<g>
</g>
<g>
</g>
<g>
</g>
<g>
</g>
<g>
</g>
<g>
</g>
<g>
</g>
<g>
</g>
<g>
</g>
</svg>
