<?xml version="1.0" encoding="iso-8859-1"?>
<!-- Generator: Adobe Illustrator 19.0.0, SVG Export Plug-In . SVG Version: 6.00 Build 0)  -->
<svg version="1.1" id="Capa_1" xmlns="http://www.w3.org/2000/svg" xmlns:xlink="http://www.w3.org/1999/xlink" x="0px" y="0px"
	 viewBox="0 0 480 480" style="enable-background:new 0 0 480 480;" xml:space="preserve">
<path style="fill:#D88F5D;" d="M0,464h480v16H0V464z"/>
<circle style="fill:#DB735C;" cx="152" cy="336" r="40"/>
<g>
	<circle style="fill:#D3AC5C;" cx="152" cy="104" r="40"/>
	<path style="fill:#D3AC5C;" d="M144,16h16v32h-16V16z"/>
	<path style="fill:#D3AC5C;" d="M208,96h32v16h-32V96z"/>
	<path style="fill:#D3AC5C;" d="M187.075,57.618l23.274-23.274l11.313,11.313L198.387,68.93L187.075,57.618z"/>
	<path style="fill:#D3AC5C;" d="M82.341,45.654l11.313-11.313l23.274,23.274l-11.313,11.313L82.341,45.654z"/>
	<path style="fill:#D3AC5C;" d="M144,160h16v32h-16V160z"/>
	<path style="fill:#D3AC5C;" d="M64,96h32v16H64V96z"/>
	<path style="fill:#D3AC5C;" d="M82.355,162.34l23.274-23.274l11.313,11.313l-23.274,23.274L82.355,162.34z"/>
	<path style="fill:#D3AC5C;" d="M187.074,150.373l11.314-11.311l23.273,23.281l-11.314,11.311L187.074,150.373z"/>
</g>
<g>
	<path style="fill:#DB735C;" d="M144,248h16v32h-16V248z"/>
	<path style="fill:#DB735C;" d="M144,392h16v32h-16V392z"/>
	<path style="fill:#DB735C;" d="M64,328h32v16H64V328z"/>
	<path style="fill:#DB735C;" d="M208,328h32v16h-32V328z"/>
	<path style="fill:#DB735C;" d="M187.068,289.619l23.274-23.274l11.313,11.313l-23.274,23.274L187.068,289.619z"/>
	<path style="fill:#DB735C;" d="M82.348,394.382l23.274-23.274l11.313,11.313l-23.274,23.274L82.348,394.382z"/>
	<path style="fill:#DB735C;" d="M82.343,277.648l11.313-11.313l23.274,23.274l-11.313,11.313L82.343,277.648z"/>
	<path style="fill:#DB735C;" d="M187.072,382.355l11.314-11.311l23.273,23.281l-11.314,11.311L187.072,382.355z"/>
</g>
<path style="fill:#D3AC5C;" d="M456,356.297V30.765c-0.696-17.673-15.587-31.436-33.26-30.74
	c-16.697,0.657-30.082,14.043-30.74,30.74v325.531c-19.759,17.673-21.45,48.018-3.777,67.777
	c17.673,19.759,48.018,21.45,67.777,3.777c19.759-17.673,21.45-48.018,3.777-67.777C458.589,358.746,457.328,357.485,456,356.297z"
	/>
<path style="fill:#D88F5D;" d="M432,369.474V160h-16v209.474c-12.497,4.418-19.046,18.131-14.627,30.627
	c4.418,12.497,18.131,19.046,30.627,14.627c12.497-4.418,19.046-18.131,14.627-30.627C444.211,377.267,438.835,371.89,432,369.474z"
	/>
<g>
</g>
<g>
</g>
<g>
</g>
<g>
</g>
<g>
</g>
<g>
</g>
<g>
</g>
<g>
</g>
<g>
</g>
<g>
</g>
<g>
</g>
<g>
</g>
<g>
</g>
<g>
</g>
<g>
</g>
</svg>
