<?xml version="1.0" encoding="iso-8859-1"?>
<!-- Generator: Adobe Illustrator 19.0.0, SVG Export Plug-In . SVG Version: 6.00 Build 0)  -->
<svg version="1.1" id="Capa_1" xmlns="http://www.w3.org/2000/svg" xmlns:xlink="http://www.w3.org/1999/xlink" x="0px" y="0px"
	 viewBox="0 0 480 480" style="enable-background:new 0 0 480 480;" xml:space="preserve">
<path style="fill:#DCDCDA;" d="M388.966,96c-11.347-41.523-60.558-72-115.862-72c-54.646,0-95.54,31.219-107.586,72
	c-33.58,0.434-65.225,15.446-74.483,40c-2.534-0.183-5.686,0-8.276,0C36.122,136,0,168.722,0,208s36.122,72,82.759,72h289.655
	C431.703,278.043,480,233.797,480,184C480,138.481,441.017,103.683,388.966,96z"/>
<path style="fill:#E2DAA7;" d="M371.073,279.753l-6.683-1.782c-33.763-9.003-63.084-8.896-82.467-37.971H192
	c-20.536,30.803-52.176,28.483-88.315,36.514L88,280h283.041C371.109,279.477,371.005,280.276,371.073,279.753z"/>
<path style="fill:#FAE249;" d="M320,299.552h-59.736L293.856,192h-74.648L192,338.664h59.736L217.6,456L320,299.552z"/>
<g>
</g>
<g>
</g>
<g>
</g>
<g>
</g>
<g>
</g>
<g>
</g>
<g>
</g>
<g>
</g>
<g>
</g>
<g>
</g>
<g>
</g>
<g>
</g>
<g>
</g>
<g>
</g>
<g>
</g>
</svg>
