<?xml version="1.0" encoding="iso-8859-1"?>
<!-- Generator: Adobe Illustrator 19.0.0, SVG Export Plug-In . SVG Version: 6.00 Build 0)  -->
<svg version="1.1" id="Capa_1" xmlns="http://www.w3.org/2000/svg" xmlns:xlink="http://www.w3.org/1999/xlink" x="0px" y="0px"
	 viewBox="0 0 480 480" style="enable-background:new 0 0 480 480;" xml:space="preserve">
<ellipse style="fill:#60A867;" cx="128" cy="160" rx="120" ry="152"/>
<path style="fill:#57CE5F;" d="M144.907,9.682C187.006,37.194,216,94.084,216,160s-28.995,122.806-71.094,150.319
	C203.152,299.886,248,236.657,248,160S203.153,20.114,144.907,9.682z"/>
<path style="fill:#846328;" d="M216,168v-16h-32v-40h-16v44.688l-41.576,41.576l-23.096-11.544l-7.408-51.856l-15.84,2.272
	l5.84,40.88l-18.344-9.176l-7.152,14.32L120,212.944V472h16V211.312L179.312,168L216,168z"/>
<g>
	<circle style="fill:#DB735C;" cx="376" cy="88" r="40"/>
	<path style="fill:#DB735C;" d="M368,0h16v32h-16V0z"/>
	<path style="fill:#DB735C;" d="M368,144h16v32h-16V144z"/>
	<path style="fill:#DB735C;" d="M288,80h32v16h-32V80z"/>
	<path style="fill:#DB735C;" d="M432,80h32v16h-32V80z"/>
	<path style="fill:#DB735C;" d="M411.074,41.64l23.274-23.274l11.313,11.313l-23.274,23.274L411.074,41.64z"/>
	<path style="fill:#DB735C;" d="M306.346,146.346l23.274-23.274l11.313,11.313l-23.274,23.274L306.346,146.346z"/>
	<path style="fill:#DB735C;" d="M306.348,29.652l11.313-11.313l23.274,23.274l-11.313,11.313L306.348,29.652z"/>
	<path style="fill:#DB735C;" d="M411.07,134.372l11.314-11.311l23.273,23.281l-11.314,11.311L411.07,134.372z"/>
</g>
<path style="fill:#DCDCDA;" d="M344,352h112v120H344V352z"/>
<path style="fill:#309AB7;" d="M400,280l-80,80h160L400,280z"/>
<path style="fill:#64C2D8;" d="M400,280l-80,80h48L400,280z"/>
<path style="fill:#7F5818;" d="M0,464h480v16H0V464z"/>
<g>
</g>
<g>
</g>
<g>
</g>
<g>
</g>
<g>
</g>
<g>
</g>
<g>
</g>
<g>
</g>
<g>
</g>
<g>
</g>
<g>
</g>
<g>
</g>
<g>
</g>
<g>
</g>
<g>
</g>
</svg>
