<?xml version="1.0" encoding="iso-8859-1"?>
<!-- Generator: Adobe Illustrator 19.0.0, SVG Export Plug-In . SVG Version: 6.00 Build 0)  -->
<svg version="1.1" id="Capa_1" xmlns="http://www.w3.org/2000/svg" xmlns:xlink="http://www.w3.org/1999/xlink" x="0px" y="0px"
	 viewBox="0 0 480.568 480.568" style="enable-background:new 0 0 480.568 480.568;" xml:space="preserve">
<path style="fill:#846328;" d="M181.013,184.284h50.983v-16H184.69v-40h-15.769v45.703l-59.4,66.297h-2.239l-26.189-9.964
	l0.797-0.231l-15.769-56l-15.168,4.391l12.732,45.217l-18.145-6.904l-5.544,14.984l57.964,22.055v218.453h15.769V318.649
	l96.385-22.568l-3.319-15.641l-24.06,4.882c-0.662,0.126-1.301-0.308-1.427-0.97c-0.039-0.207-0.025-0.421,0.043-0.621
	l10.432-31.754c0.213-0.639-0.128-1.33-0.764-1.551l-12.66-4.286c-0.631-0.211-1.314,0.13-1.525,0.761
	c-0.002,0.005-0.003,0.009-0.005,0.014l-14.218,43.262c-0.131,0.403-0.462,0.709-0.874,0.807l-48.01,11.241v-42.845L181.013,184.284
	z"/>
<circle style="fill:#D3AC5C;" cx="240.568" cy="176.284" r="24"/>
<path style="fill:#E0BE80;" d="M243.425,152.284c-1.153,0.022-2.302,0.157-3.429,0.403c10.569,2.831,17.717,12.67,17.143,23.597
	c0.574,10.927-6.574,20.766-17.143,23.597c1.127,0.246,2.275,0.381,3.429,0.403c12.273-1.015,21.445-11.716,20.571-24
	C264.87,164,255.698,153.299,243.425,152.284z"/>
<circle style="fill:#D3AC5C;" cx="24" cy="216.284" r="24"/>
<path style="fill:#E0BE80;" d="M23.997,192.284c-1.342,0.022-2.68,0.157-4,0.403c13.032,2.165,21.842,14.486,19.676,27.518
	c-1.677,10.091-9.585,18-19.676,19.676c13.049,2.226,25.433-6.548,27.659-19.597c2.226-13.049-6.548-25.433-19.597-27.659
	C26.716,192.396,25.358,192.282,23.997,192.284z"/>
<g>
	<circle style="fill:#DB735C;" cx="376.568" cy="88.284" r="40"/>
	<path style="fill:#DB735C;" d="M368.568,0.284h16v32h-16V0.284z"/>
	<path style="fill:#DB735C;" d="M368.568,144.284h16v32h-16V144.284z"/>
	<path style="fill:#DB735C;" d="M288.568,80.284h32v16h-32V80.284z"/>
	<path style="fill:#DB735C;" d="M432.568,80.284h32v16h-32V80.284z"/>
	<path style="fill:#DB735C;" d="M411.642,41.924l23.274-23.274l11.313,11.313l-23.274,23.274L411.642,41.924z"/>
	<path style="fill:#DB735C;" d="M306.914,146.63l23.274-23.274l11.313,11.313l-23.274,23.274L306.914,146.63z"/>
	<path style="fill:#DB735C;" d="M306.916,29.936l11.313-11.313l23.274,23.274L330.19,53.209L306.916,29.936z"/>
	<path style="fill:#DB735C;" d="M411.638,134.656l11.314-11.311l23.273,23.281l-11.314,11.311L411.638,134.656z"/>
</g>
<path style="fill:#DCDCDA;" d="M344.568,352.284h112v120h-112V352.284z"/>
<path style="fill:#309AB7;" d="M400.568,280.284l-80,80h160L400.568,280.284z"/>
<path style="fill:#64C2D8;" d="M400.568,280.284l-80,80h48L400.568,280.284z"/>
<circle style="fill:#D3AC5C;" cx="216" cy="280.284" r="24"/>
<path style="fill:#E0BE80;" d="M215.997,256.284c-8.366,0.013-16.117,4.399-20.436,11.564c11.223-6.932,25.94-3.454,32.872,7.768
	c4.752,7.693,4.752,17.411,0,25.104c11.319-6.836,14.952-21.554,8.116-32.872C232.203,260.653,224.402,256.264,215.997,256.284z"/>
<circle style="fill:#60A867;" cx="184" cy="232.284" r="24"/>
<path style="fill:#4BC654;" d="M183.997,208.284c-1.342,0.022-2.68,0.157-4,0.403c13.032,2.165,21.842,14.486,19.676,27.518
	c-1.677,10.091-9.585,18-19.676,19.676c13.049,2.226,25.433-6.548,27.659-19.597s-6.548-25.433-19.597-27.659
	C186.716,208.396,185.358,208.282,183.997,208.284z"/>
<circle style="fill:#60A867;" cx="168" cy="112.284" r="24"/>
<path style="fill:#4BC654;" d="M167.997,88.284c-1.342,0.022-2.68,0.157-4,0.403c13.032,2.165,21.842,14.486,19.676,27.518
	c-1.677,10.091-9.585,18-19.676,19.676c13.049,2.226,25.433-6.548,27.659-19.597s-6.548-25.433-19.597-27.659
	C170.716,88.396,169.358,88.282,167.997,88.284z"/>
<circle style="fill:#60A867;" cx="48" cy="160.284" r="24"/>
<path style="fill:#4BC654;" d="M47.997,136.284c-1.342,0.022-2.68,0.157-4,0.403c13.032,2.165,21.842,14.486,19.676,27.518
	c-1.677,10.091-9.585,18-19.676,19.676c13.049,2.226,25.433-6.548,27.659-19.597c2.226-13.049-6.548-25.433-19.597-27.659
	C50.716,136.396,49.358,136.282,47.997,136.284z"/>
<path style="fill:#7F5818;" d="M0.568,464.284h480v16h-480V464.284z"/>
<g>
</g>
<g>
</g>
<g>
</g>
<g>
</g>
<g>
</g>
<g>
</g>
<g>
</g>
<g>
</g>
<g>
</g>
<g>
</g>
<g>
</g>
<g>
</g>
<g>
</g>
<g>
</g>
<g>
</g>
</svg>
