<?xml version="1.0" encoding="iso-8859-1"?>
<!-- Generator: Adobe Illustrator 19.0.0, SVG Export Plug-In . SVG Version: 6.00 Build 0)  -->
<svg version="1.1" id="Capa_1" xmlns="http://www.w3.org/2000/svg" xmlns:xlink="http://www.w3.org/1999/xlink" x="0px" y="0px"
	 viewBox="0 0 488.57 488.57" style="enable-background:new 0 0 488.57 488.57;" xml:space="preserve">
<path style="fill:#CEE8EF;" d="M204.285,316.289l-40-72l40-72h80l40,72l-40,72H204.285z"/>
<path style="fill:#82DFF4;" d="M204.285,172.289l-40,72l40,64l88-136H204.285z"/>
<path style="fill:#6CC3E1;" d="M484.285,236.289h-58.374l39.581-33.926l-10.414-12.148l-53.753,46.074h-72.332l-32.79-59.021
	l64.496-101.836l61.528-15.382l-3.883-15.523L373.11,55.836l29.933-47.262l-13.516-8.562l-25.242,39.856V4.289h-16V65.13
	l-62.896,99.308c-0.364-0.076-0.733-0.126-1.104-0.149h-80c-0.37,0.023-0.737,0.073-1.1,0.148l-62.9-99.317V4.289h-16v35.568
	L99.043,0L85.527,8.562l29.939,47.273L70.223,44.531l-3.875,15.523l61.528,15.375l64.495,101.834l-32.792,59.025H94.951
	l-61.865-46.398l-9.602,12.797l44.802,33.602H4.285v16h64.001l-44.802,33.602l9.602,12.797l61.865-46.398h64.627l32.791,59.023
	l-59.857,94.51L66.551,420.48l3.469,15.617l50.413-11.202l-34.905,55.112l13.516,8.563l33.242-52.487v48.206h16v-72
	c-0.056-0.366-0.138-0.727-0.246-1.081l55.144-87.068c0.364,0.076,0.732,0.125,1.103,0.148h80c0.371-0.023,0.741-0.073,1.105-0.149
	l55.144,87.071c-0.109,0.353-0.192,0.713-0.249,1.078v72h16v-48.208l33.242,52.489l13.516-8.563l-34.45-54.395l41.751,10.438
	l3.883-15.523l-58.044-14.511l-59.979-94.706l32.79-59.021h72.332l53.753,46.074l10.414-12.148l-39.581-33.926h58.374V236.289z
	 M275.351,180.289l-31.064,49.047l-31.063-49.047H275.351z M202.12,192.659l27.632,43.63h-51.87L202.12,192.659z M202.119,295.917
	l-24.237-43.628h51.869L202.119,295.917z M213.222,308.289l31.065-49.049l31.064,49.049H213.222z M286.453,295.915l-27.629-43.626
	h51.865L286.453,295.915z M258.822,236.289l27.63-43.626l24.236,43.626H258.822z"/>
<g>
</g>
<g>
</g>
<g>
</g>
<g>
</g>
<g>
</g>
<g>
</g>
<g>
</g>
<g>
</g>
<g>
</g>
<g>
</g>
<g>
</g>
<g>
</g>
<g>
</g>
<g>
</g>
<g>
</g>
</svg>
