<?xml version="1.0" encoding="iso-8859-1"?>
<!-- Generator: Adobe Illustrator 19.0.0, SVG Export Plug-In . SVG Version: 6.00 Build 0)  -->
<svg version="1.1" id="Capa_1" xmlns="http://www.w3.org/2000/svg" xmlns:xlink="http://www.w3.org/1999/xlink" x="0px" y="0px"
	 viewBox="0 0 480 480" style="enable-background:new 0 0 480 480;" xml:space="preserve">
<path style="fill:#BEE1EA;" d="M136,320h-20.688l14.344-14.344l-11.312-11.312L104,308.688V288H88v20.688l-14.344-14.344
	l-11.312,11.312L76.688,320H56v16h20.688l-14.344,14.344l11.312,11.312L88,347.312V368h16v-20.688l14.344,14.344l11.312-11.312
	L115.312,336H136L136,320z"/>
<path style="fill:#6CC3E1;" d="M104,432H83.312l14.344-14.344l-11.312-11.312L72,420.688V400H56v20.688l-14.344-14.344
	l-11.312,11.312L44.688,432H24v16h20.688l-14.344,14.344l11.312,11.312L56,459.312V480h16v-20.688l14.344,14.344l11.312-11.312
	L83.312,448H104L104,432z"/>
<path style="fill:#BEE1EA;" d="M272,320h-20.688l14.344-14.344l-11.312-11.312L240,308.688V288h-16v20.688l-14.344-14.344
	l-11.312,11.312L212.688,320H192v16h20.688l-14.344,14.344l11.312,11.312L224,347.312V368h16v-20.688l14.344,14.344l11.312-11.312
	L251.312,336H272V320z"/>
<path style="fill:#6CC3E1;" d="M240,432h-20.688l14.344-14.344l-11.312-11.312L208,420.688V400h-16v20.688l-14.344-14.344
	l-11.312,11.312L180.688,432H160v16h20.688l-14.344,14.344l11.312,11.312L192,459.312V480h16v-20.688l14.344,14.344l11.312-11.312
	L219.312,448H240V432z"/>
<path style="fill:#BEE1EA;" d="M408,320h-20.688l14.344-14.344l-11.312-11.312L376,308.688V288h-16v20.688l-14.344-14.344
	l-11.312,11.312L348.688,320H328v16h20.688l-14.344,14.344l11.312,11.312L360,347.312V368h16v-20.688l14.344,14.344l11.312-11.312
	L387.312,336H408V320z"/>
<path style="fill:#6CC3E1;" d="M376,432h-20.688l14.344-14.344l-11.312-11.312L344,420.688V400h-16v20.688l-14.344-14.344
	l-11.312,11.312L316.688,432H296v16h20.688l-14.344,14.344l11.312,11.312L328,459.312V480h16v-20.688l14.344,14.344l11.312-11.312
	L355.312,448H376V432z"/>
<path style="fill:#DCDCDA;" d="M384,72C373.031,30.477,325.461,0,272,0c-52.824,0-92.355,31.219-104,72
	c-32.461,0.434-63.05,15.446-72,40c-2.45-0.183-5.496,0-8,0c-45.082,0-80,32.722-80,72s34.918,72,80,72h280
	c57.313-1.957,104-46.203,104-96C472,114.481,434.317,79.683,384,72z"/>
<path style="fill:#BFBFBF;" d="M467.472,133.751C462.487,180.518,423.032,215.995,376,216H56
	c-15.657,0.012-31.056-3.993-44.723-11.633C23.029,236.331,53.963,257.149,88,256h280c57.313-1.957,104-46.203,104-96
	C471.996,151.056,470.465,142.179,467.472,133.751z"/>
<g>
</g>
<g>
</g>
<g>
</g>
<g>
</g>
<g>
</g>
<g>
</g>
<g>
</g>
<g>
</g>
<g>
</g>
<g>
</g>
<g>
</g>
<g>
</g>
<g>
</g>
<g>
</g>
<g>
</g>
</svg>
