<?xml version="1.0" encoding="iso-8859-1"?>
<!-- Generator: Adobe Illustrator 19.0.0, SVG Export Plug-In . SVG Version: 6.00 Build 0)  -->
<svg version="1.1" id="Capa_1" xmlns="http://www.w3.org/2000/svg" xmlns:xlink="http://www.w3.org/1999/xlink" x="0px" y="0px"
	 viewBox="0 0 488 488" style="enable-background:new 0 0 488 488;" xml:space="preserve">
<path style="fill:#DB735C;" d="M468.33,282.615C451.058,175.404,355.188,93.347,239.438,93.347
	c-115.752,0-211.63,82.058-228.901,189.268h136.456c21.554-51.026,80.391-74.917,131.417-53.363
	c24.057,10.162,43.202,29.307,53.363,53.363H468.33z"/>
<path style="fill:#D3AC5C;" d="M434.575,282.646c-16.74-89.597-97.639-157.302-195.135-157.302
	c-97.6,0-178.64,67.622-195.36,157.302H146.8c21.686-51.134,80.719-75.006,131.853-53.32c24.016,10.185,43.135,29.304,53.32,53.32
	H434.575z"/>
<path style="fill:#60A867;" d="M402.4,282.646h-70.24c-15.32-37.556-52.084-61.891-92.64-61.324
	c-35.519-0.201-68.462,18.51-86.48,49.12c-0.32,0.56-0.64,1.2-0.96,1.76c-2.029,3.339-3.794,6.83-5.28,10.444H78.16
	c17.862-74.368,84.885-126.423,161.36-125.324C315.52,157.322,382.8,214.726,402.4,282.646L402.4,282.646z"/>
<path style="fill:#6CC3E1;" d="M238.658,191.03c-57.996-0.772-109.632,36.587-127.04,91.914h34.88
	c1.556-3.619,3.375-7.12,5.44-10.474c0.32-0.56,0.64-1.2,0.96-1.76c18.018-30.61,50.961-49.321,86.48-49.12
	c40.562-0.555,77.323,23.791,92.64,61.354h36.32C348.235,228.47,296.716,191.955,238.658,191.03L238.658,191.03z"/>
<path style="fill:#DAE4E8;" d="M190.345,290.646c-0.21,0-0.404,0.054-0.614,0.062c-19.517-31.698-61.035-41.572-92.733-22.055
	c-3.344,2.059-6.503,4.407-9.438,7.016c-9.587-10.877-23.405-17.083-37.904-17.023c-26.963-0.448-49.189,21.037-49.655,48
	c0.05,14.115,6.413,27.468,17.344,36.398c-0.509,2.502-0.775,5.048-0.792,7.602c0,24.297,22.233,44,49.655,44
	c13.758,0.143,27.021-5.123,36.934-14.664c9.135,4.386,19.139,6.663,29.272,6.664c23.415,0.138,45.181-12.037,57.317-32.062
	c0.21,0.008,0.404,0.062,0.614,0.062c17.673,0.599,32.486-13.242,33.085-30.915c0.599-17.673-13.242-32.486-30.915-33.085
	C191.792,290.621,191.068,290.621,190.345,290.646z"/>
<path style="fill:#D3D3D3;" d="M124.138,362.646c-50.08,0.306-96.588-25.897-122.274-68.89c-1.224,4.188-1.852,8.527-1.864,12.89
	c0.05,14.115,6.413,27.468,17.344,36.398c-0.509,2.502-0.775,5.048-0.792,7.602c0,24.297,22.233,44,49.655,44
	c13.758,0.143,27.021-5.123,36.934-14.664c9.135,4.386,19.139,6.663,29.272,6.664c23.415,0.138,45.181-12.037,57.317-32.062
	c0.21,0.008,0.404,0.062,0.614,0.062c17.83,0.285,32.572-13.825,33.067-31.65C196.707,348.575,161.117,362.79,124.138,362.646z"/>
<path style="fill:#DAE4E8;" d="M488,294.646c-0.348-20.223-17.018-36.338-37.241-36c-4.183,0.04-8.331,0.771-12.277,2.164
	c-25.572-24.174-65.554-24.225-91.188-0.117c-8.228-6.541-18.438-10.085-28.949-10.047c-24.717-0.412-45.091,19.283-45.517,44
	c0.136,16.808,9.867,32.06,25.053,39.266c-0.145,1.554-0.226,3.133-0.226,4.734c-0.665,25.816,19.702,47.294,45.517,48
	c11.751-0.049,22.997-4.785,31.245-13.156c10.326,13.408,26.315,21.232,43.238,21.156c29.21,0.486,53.289-22.79,53.793-52
	c-0.009-5.649-0.97-11.256-2.844-16.586C480.402,320.005,487.872,307.907,488,294.646z"/>
<path style="fill:#D3D3D3;" d="M488,294.646c-0.017-7.451-2.414-14.702-6.843-20.695c-18.816,50.453-68.021,83.015-121.815,80.614
	c-21.769-0.745-42.976-7.101-61.566-18.453c-0.044,0.844-0.121,1.677-0.121,2.534c-0.665,25.816,19.702,47.294,45.517,48
	c11.751-0.049,22.998-4.785,31.245-13.156c10.326,13.408,26.315,21.232,43.238,21.156c29.21,0.486,53.289-22.79,53.793-52
	c-0.009-5.649-0.97-11.257-2.844-16.586C480.402,320.005,487.872,307.907,488,294.646z"/>
<g>
</g>
<g>
</g>
<g>
</g>
<g>
</g>
<g>
</g>
<g>
</g>
<g>
</g>
<g>
</g>
<g>
</g>
<g>
</g>
<g>
</g>
<g>
</g>
<g>
</g>
<g>
</g>
<g>
</g>
</svg>
