<?xml version="1.0" encoding="iso-8859-1"?>
<!-- Generator: Adobe Illustrator 19.0.0, SVG Export Plug-In . SVG Version: 6.00 Build 0)  -->
<svg version="1.1" id="Capa_1" xmlns="http://www.w3.org/2000/svg" xmlns:xlink="http://www.w3.org/1999/xlink" x="0px" y="0px"
	 viewBox="0 0 480 480" style="enable-background:new 0 0 480 480;" xml:space="preserve">
<circle style="fill:#DB735C;" cx="168" cy="184" r="120"/>
<path style="fill:#EEEEED;" d="M388.966,256c-11.347-46.711-60.558-80-115.862-80c-50.096-1.575-94.673,31.572-107.586,80
	c-33.58,0.481-65.225,20.383-74.483,48c-2.534-0.199-5.686,0-8.276,0C36.122,304,0,347.817,0,392s36.122,72,82.759,72h289.655
	C431.703,461.793,480,416.016,480,360C478.98,307.81,440.561,263.92,388.966,256z"/>
<g>
	<path style="fill:#DB735C;" d="M160,16h16v32h-16V16z"/>
	<path style="fill:#DB735C;" d="M0,176h32v16H0V176z"/>
	<path style="fill:#DB735C;" d="M35.735,290.348l22.629-22.629l11.313,11.313L47.048,301.66L35.735,290.348z"/>
	<path style="fill:#DB735C;" d="M257.304,82.341l22.627-22.627l11.313,11.313l-22.627,22.627L257.304,82.341z"/>
	<path style="fill:#DB735C;" d="M42.344,71.025l11.313-11.313l22.629,22.629L64.973,93.654L42.344,71.025z"/>
</g>
<path style="fill:#BFBFBF;" d="M445.691,283.655C452.453,297.461,455.979,312.627,456,328c0,56.016-48.297,101.792-107.586,104
	H58.759c-19.582,0.456-38.805-5.299-54.915-16.441C14.294,445.831,45.083,464,82.759,464h289.655
	C431.703,461.792,480,416.016,480,360C479.794,330.863,467.343,303.155,445.691,283.655z"/>
<path style="fill:#EAD0AC;" d="M85.793,333.333c2.936,0,6.507-0.232,9.379,0c10.493-32.219,46.356-55.439,84.414-56
	c13.781-55.82,64.449-94.604,121.931-93.333c7.287,0.014,14.563,0.555,21.772,1.62c-15.965-6.368-32.998-9.633-50.186-9.62
	c-50.096-1.576-94.673,31.572-107.586,80c-33.58,0.48-65.225,20.383-74.482,48c-2.534-0.199-5.686,0-8.276,0
	C36.122,304,0,347.817,0,392c0,1.355,0.137,2.647,0.205,3.971C14.677,360.921,46.987,333.333,85.793,333.333z"/>
<g>
</g>
<g>
</g>
<g>
</g>
<g>
</g>
<g>
</g>
<g>
</g>
<g>
</g>
<g>
</g>
<g>
</g>
<g>
</g>
<g>
</g>
<g>
</g>
<g>
</g>
<g>
</g>
<g>
</g>
</svg>
