<?xml version="1.0" encoding="iso-8859-1"?>
<!-- Generator: Adobe Illustrator 19.0.0, SVG Export Plug-In . SVG Version: 6.00 Build 0)  -->
<svg version="1.1" id="Capa_1" xmlns="http://www.w3.org/2000/svg" xmlns:xlink="http://www.w3.org/1999/xlink" x="0px" y="0px"
	 viewBox="0 0 480 480" style="enable-background:new 0 0 480 480;" xml:space="preserve">
<path style="fill:#FFFF40;" d="M197.644,240C197.43,146.216,251.84,60.891,336.961,21.522C306.122,7.323,272.57-0.02,238.619,0
	C106.071,1.299-0.328,109.804,0.972,242.352C2.253,373.067,107.904,478.719,238.619,480c33.951,0.02,67.503-7.323,98.341-21.522
	C251.84,419.109,197.43,333.784,197.644,240z"/>
<path style="fill:#EDE615;" d="M58.327,240C57.853,119.227,147.493,17.051,267.3,1.802C257.785,0.619,248.207,0.017,238.619,0
	C106.071,1.299-0.328,109.803,0.971,242.352C2.252,373.067,107.904,478.719,238.619,480c9.588-0.017,19.166-0.619,28.681-1.802
	C147.493,462.949,57.853,360.773,58.327,240z"/>
<path style="fill:#FFF02E;" d="M428.001,360l12.048,37.08h38.992L447.497,420l12.048,37.08l-31.544-22.912l-31.544,22.912
	L408.505,420l-31.544-22.92h38.992L428.001,360z"/>
<path style="fill:#FAE946;" d="M340.001,302.136l10.16,31.264h32.88l-26.6,19.328L366.601,384l-26.6-19.328L313.401,384
	l10.16-31.272l-26.6-19.328h32.88L340.001,302.136z"/>
<g>
</g>
<g>
</g>
<g>
</g>
<g>
</g>
<g>
</g>
<g>
</g>
<g>
</g>
<g>
</g>
<g>
</g>
<g>
</g>
<g>
</g>
<g>
</g>
<g>
</g>
<g>
</g>
<g>
</g>
</svg>
