<?xml version="1.0" encoding="iso-8859-1"?>
<!-- Generator: Adobe Illustrator 19.0.0, SVG Export Plug-In . SVG Version: 6.00 Build 0)  -->
<svg version="1.1" id="Capa_1" xmlns="http://www.w3.org/2000/svg" xmlns:xlink="http://www.w3.org/1999/xlink" x="0px" y="0px"
	 viewBox="0 0 480 480" style="enable-background:new 0 0 480 480;" xml:space="preserve">
<path style="fill:#A5E4F2;" d="M399.998,239.992c0.004,88.366-71.626,160.004-159.992,160.008S80.003,328.374,79.998,240.008
	C79.994,151.642,151.625,80.004,239.99,80c0.003,0,0.005,0,0.008,0c88.358-0.007,159.993,71.615,160,159.974
	C399.998,239.98,399.998,239.986,399.998,239.992z"/>
<g>
	<circle style="fill:#66AAB5;" cx="240" cy="240" r="64"/>
	<path style="fill:#66AAB5;" d="M240,376c-75.111,0-136-60.889-136-136s60.889-136,136-136v16c-66.274,0-120,53.726-120,120
		s53.726,120,120,120s120-53.726,120-120h16C375.916,315.076,315.076,375.916,240,376z"/>
	<path style="fill:#66AAB5;" d="M240,344v-16c48.601,0,88-39.399,88-88s-39.399-88-88-88s-88,39.399-88,88h-16
		c0-57.438,46.562-104,104-104s104,46.562,104,104S297.438,344,240,344z"/>
</g>
<path style="fill:#61ABE2;" d="M240,72c-34.389-0.011-67.942,10.6-96.073,30.38C192.285,49.862,267.546,16,352,16V0
	c-154.383,0-279.988,107.653-280,239.981l0,0.011V240h0c-0.009,34.391,10.604,67.946,30.387,96.077
	C49.869,287.72,16.004,212.457,16,128H0c0.008,154.391,107.668,280,239.992,280v0l0.008,0c34.392,0.01,67.948-10.603,96.079-30.388
	C287.72,430.131,212.456,463.996,128,464v16c154.395-0.008,280.004-107.672,280.004-239.992h-0.005l0.001-0.016
	c0.01-34.385-10.599-67.935-30.377-96.062C430.14,192.288,464,267.547,464,352h16C480,197.609,372.336,72,240,72L240,72z
	 M392,239.992c0.001,83.947-68.051,152.001-151.999,152.001C156.054,391.994,88.001,323.942,88,239.995l0-0.014
	c0.152-83.947,68.328-151.876,152.276-151.724C324.012,88.409,391.854,156.256,392,239.992z"/>
<g>
</g>
<g>
</g>
<g>
</g>
<g>
</g>
<g>
</g>
<g>
</g>
<g>
</g>
<g>
</g>
<g>
</g>
<g>
</g>
<g>
</g>
<g>
</g>
<g>
</g>
<g>
</g>
<g>
</g>
</svg>
