<?xml version="1.0" encoding="iso-8859-1"?>
<!-- Generator: Adobe Illustrator 19.0.0, SVG Export Plug-In . SVG Version: 6.00 Build 0)  -->
<svg version="1.1" id="Capa_1" xmlns="http://www.w3.org/2000/svg" xmlns:xlink="http://www.w3.org/1999/xlink" x="0px" y="0px"
	 viewBox="0 0 480 480" style="enable-background:new 0 0 480 480;" xml:space="preserve">
<path style="fill:#D3AC5C;" d="M18.347,378.347l23.274-23.274l11.313,11.313L29.66,389.66L18.347,378.347z"/>
<circle style="fill:#DB735C;" cx="280" cy="88" r="40"/>
<path style="fill:#D3AC5C;" d="M456,364.297V38.766c-0.696-17.673-15.587-31.436-33.26-30.74
	c-16.697,0.657-30.082,14.043-30.74,30.74v325.531c-19.759,17.673-21.45,48.018-3.777,67.777
	c17.673,19.759,48.018,21.45,67.777,3.777c19.759-17.673,21.45-48.018,3.777-67.777C458.589,366.746,457.328,365.485,456,364.297z"
	/>
<path style="fill:#D88F5D;" d="M0,464h480v16H0V464z"/>
<circle style="fill:#D3AC5C;" cx="88" cy="88" r="40"/>
<g>
	<path style="fill:#DB735C;" d="M336,80h32v16h-32V80z"/>
	<circle style="fill:#DB735C;" cx="88" cy="320" r="40"/>
	<circle style="fill:#DB735C;" cx="280" cy="320" r="40"/>
</g>
<path style="fill:#D88F5D;" d="M432,377.474V40h-16v337.474c-12.497,4.418-19.046,18.131-14.627,30.627
	c4.418,12.497,18.131,19.046,30.627,14.627c12.497-4.418,19.046-18.131,14.627-30.627C444.211,385.267,438.835,379.891,432,377.474z
	"/>
<g>
	<path style="fill:#D3AC5C;" d="M88,280c-21.982-0.11-39.89,17.621-40,39.603c-0.048,9.616,3.387,18.924,9.67,26.204l57.029-55.4
		C107.405,283.735,97.885,280.024,88,280z"/>
	<path style="fill:#D3AC5C;" d="M280,48c-22.092,0.001-40.001,17.91-40,40.002c0,10.608,4.214,20.781,11.715,28.283l56.57-56.57
		C300.791,52.202,290.612,47.986,280,48z"/>
	<path style="fill:#D3AC5C;" d="M80,144h16v32H80V144z"/>
	<path style="fill:#D3AC5C;" d="M0,80h32v16H0V80z"/>
	<path style="fill:#D3AC5C;" d="M144,80h32v16h-32V80z"/>
	<path style="fill:#D3AC5C;" d="M123.074,41.615l23.274-23.274l11.313,11.313l-23.274,23.274L123.074,41.615z"/>
	<path style="fill:#D3AC5C;" d="M18.346,146.346l23.274-23.274l11.313,11.313l-23.274,23.274L18.346,146.346z"/>
	<path style="fill:#D3AC5C;" d="M123.067,134.377l11.314-11.311l23.273,23.281l-11.314,11.311L123.067,134.377z"/>
	<path style="fill:#D3AC5C;" d="M80,0h16v32H80V0z"/>
	<path style="fill:#D3AC5C;" d="M18.341,29.659l11.313-11.313L52.927,41.62L41.614,52.933L18.341,29.659z"/>
</g>
<path style="fill:#DB735C;" d="M272,144h16v32h-16V144z"/>
<g>
	<path style="fill:#D3AC5C;" d="M192,80h32v16h-32V80z"/>
	<path style="fill:#D3AC5C;" d="M210.343,146.349l23.274-23.274l11.313,11.313l-23.274,23.274L210.343,146.349z"/>
	<path style="fill:#D3AC5C;" d="M210.346,29.654l11.313-11.313l23.274,23.274l-11.313,11.313L210.346,29.654z"/>
</g>
<path style="fill:#DB735C;" d="M315.072,134.371l11.314-11.311l23.273,23.281l-11.314,11.311L315.072,134.371z"/>
<path style="fill:#D3AC5C;" d="M272,0h16v32h-16V0z"/>
<g>
	<path style="fill:#DB735C;" d="M315.071,41.618l23.274-23.274l11.313,11.313l-23.274,23.274L315.071,41.618z"/>
	<path style="fill:#DB735C;" d="M123.075,273.657l23.274-23.274l11.313,11.313l-23.274,23.274L123.075,273.657z"/>
</g>
<path style="fill:#D3AC5C;" d="M80,232h16v32H80V232z"/>
<path style="fill:#DB735C;" d="M80,376h16v32H80V376z"/>
<path style="fill:#D3AC5C;" d="M0,312h32v16H0V312z"/>
<path style="fill:#DB735C;" d="M144,312h32v16h-32V312z"/>
<path style="fill:#D3AC5C;" d="M18.342,261.653l11.313-11.313l23.274,23.274l-11.313,11.313L18.342,261.653z"/>
<g>
	<path style="fill:#DB735C;" d="M123.073,366.367l11.314-11.311l23.273,23.281l-11.314,11.311L123.073,366.367z"/>
	<path style="fill:#DB735C;" d="M272,376h16v32h-16V376z"/>
	<path style="fill:#DB735C;" d="M192,312h32v16h-32V312z"/>
	<path style="fill:#DB735C;" d="M315.073,273.652l23.274-23.274l11.313,11.313l-23.274,23.274L315.073,273.652z"/>
	<path style="fill:#DB735C;" d="M210.344,378.342l23.274-23.274l11.313,11.313l-23.274,23.274L210.344,378.342z"/>
	<path style="fill:#DB735C;" d="M315.069,366.377l11.314-11.311l23.273,23.281l-11.314,11.311L315.069,366.377z"/>
	<path style="fill:#DB735C;" d="M272,232h16v32h-16V232z"/>
	<path style="fill:#DB735C;" d="M336,312h32v16h-32V312z"/>
	<path style="fill:#DB735C;" d="M210.347,261.656l11.313-11.313l23.274,23.274l-11.313,11.313L210.347,261.656z"/>
</g>
<g>
</g>
<g>
</g>
<g>
</g>
<g>
</g>
<g>
</g>
<g>
</g>
<g>
</g>
<g>
</g>
<g>
</g>
<g>
</g>
<g>
</g>
<g>
</g>
<g>
</g>
<g>
</g>
<g>
</g>
</svg>
