<?xml version="1.0" encoding="iso-8859-1"?>
<!-- Generator: Adobe Illustrator 19.0.0, SVG Export Plug-In . SVG Version: 6.00 Build 0)  -->
<svg version="1.1" id="Capa_1" xmlns="http://www.w3.org/2000/svg" xmlns:xlink="http://www.w3.org/1999/xlink" x="0px" y="0px"
	 viewBox="0 0 479.704 479.704" style="enable-background:new 0 0 479.704 479.704;" xml:space="preserve">
<path style="fill:#BEE1EA;" d="M79.852,296l-32,56l32,56l32-56L79.852,296z"/>
<path style="fill:#6CC3E1;" d="M191.852,367.704l-32,56l32,56l32-56L191.852,367.704z"/>
<path style="fill:#BEE1EA;" d="M303.852,296l-32,56l32,56l32-56L303.852,296z"/>
<path style="fill:#6CC3E1;" d="M415.852,367.704l-32,56l32,56l32-56L415.852,367.704z"/>
<path style="fill:#DCDCDA;" d="M383.852,72c-10.969-41.523-58.539-72-112-72c-52.824,0-92.355,31.219-104,72
	c-32.461,0.434-63.05,15.446-72,40c-2.45-0.183-5.496,0-8,0c-45.082,0-80,32.722-80,72s34.918,72,80,72h280
	c57.313-1.957,104-46.203,104-96C471.852,114.481,434.169,79.683,383.852,72z"/>
<path style="fill:#ABAEA7;" d="M467.324,133.751c-4.985,46.767-44.44,82.243-91.472,82.249h-320
	c-15.657,0.012-31.056-3.993-44.723-11.633C22.881,236.331,53.815,257.149,87.852,256h280c57.313-1.957,104-46.203,104-96
	C471.848,151.056,470.317,142.179,467.324,133.751z"/>
<g>
</g>
<g>
</g>
<g>
</g>
<g>
</g>
<g>
</g>
<g>
</g>
<g>
</g>
<g>
</g>
<g>
</g>
<g>
</g>
<g>
</g>
<g>
</g>
<g>
</g>
<g>
</g>
<g>
</g>
</svg>
