<?xml version="1.0" encoding="iso-8859-1"?>
<!-- Generator: Adobe Illustrator 19.0.0, SVG Export Plug-In . SVG Version: 6.00 Build 0)  -->
<svg version="1.1" id="Capa_1" xmlns="http://www.w3.org/2000/svg" xmlns:xlink="http://www.w3.org/1999/xlink" x="0px" y="0px"
	 viewBox="0 0 480 480" style="enable-background:new 0 0 480 480;" xml:space="preserve">
<circle style="fill:#DB735C;" cx="160" cy="160" r="104"/>
<path style="fill:#DCDCDA;" d="M392,200c-10.969-41.523-58.539-72-112-72c-52.824,0-92.355,31.219-104,72
	c-32.461,0.434-63.05,15.446-72,40c-2.45-0.183-5.496,0-8,0c-45.082,0-80,32.722-80,72s34.918,72,80,72h280
	c57.313-1.957,104-46.203,104-96C480,242.481,442.317,207.683,392,200z"/>
<path style="fill:#EAD0AC;" d="M104.276,261c2.763,0,6.125-0.218,8.828,0c9.876-29.159,43.629-46.985,79.448-47.5
	c12.522-46.759,53.016-80.649,101.25-84.738C289.251,128.312,284.66,128,280,128c-52.824,0-92.355,31.219-104,72
	c-32.461,0.434-63.05,15.445-72,40c-2.45-0.183-5.496,0-8,0c-45.082,0-80,32.722-80,72c0.022,5.449,0.724,10.874,2.089,16.149
	C27.521,288.328,63.357,260.408,104.276,261z"/>
<g>
	<path style="fill:#6E9AE0;" d="M0,408h480v16H0V408z"/>
	<path style="fill:#6E9AE0;" d="M0,464h480v16H0V464z"/>
</g>
<path style="fill:#BFBFBF;" d="M475.472,261.751C470.487,308.518,431.032,343.995,384,344H64
	c-15.657,0.012-31.056-3.993-44.723-11.633C31.029,364.331,61.963,385.149,96,384h280c57.313-1.957,104-46.203,104-96
	C479.996,279.056,478.465,270.179,475.472,261.751z"/>
<g>
	<path style="fill:#DB735C;" d="M152,0h16v40h-16V0z"/>
	<path style="fill:#DB735C;" d="M0,152h40v16H0V152z"/>
	<path style="fill:#DB735C;" d="M238.058,66.344l28.285-28.285l11.313,11.313L249.37,77.657L238.058,66.344z"/>
	<path style="fill:#DB735C;" d="M40.074,49.371l11.313-11.313l28.285,28.285L68.36,77.656L40.074,49.371z"/>
</g>
<g>
</g>
<g>
</g>
<g>
</g>
<g>
</g>
<g>
</g>
<g>
</g>
<g>
</g>
<g>
</g>
<g>
</g>
<g>
</g>
<g>
</g>
<g>
</g>
<g>
</g>
<g>
</g>
<g>
</g>
</svg>
