<?xml version="1.0" encoding="iso-8859-1"?>
<!-- Generator: Adobe Illustrator 19.0.0, SVG Export Plug-In . SVG Version: 6.00 Build 0)  -->
<svg version="1.1" id="Capa_1" xmlns="http://www.w3.org/2000/svg" xmlns:xlink="http://www.w3.org/1999/xlink" x="0px" y="0px"
	 viewBox="0 0 480 480" style="enable-background:new 0 0 480 480;" xml:space="preserve">
<path style="fill:#A5E4F2;" d="M399.998,239.992c0.004,88.366-71.626,160.004-159.992,160.008
	c-88.366,0.004-160.004-71.626-160.008-159.992C79.994,151.642,151.624,80.004,239.99,80c0.003,0,0.005,0,0.008,0
	c88.358-0.007,159.993,71.615,160,159.974C399.998,239.98,399.998,239.986,399.998,239.992z"/>
<circle style="fill:#66AAB5;" cx="239.998" cy="240" r="64"/>
<path style="fill:#61ABE2;" d="M407.997,240.008l0.001-0.016C408.113,147.328,333.088,72.115,240.424,72
	c-34.526-0.043-68.224,10.566-96.499,30.38C192.283,49.862,267.544,16,351.998,16V0c-154.383,0-279.988,107.653-280,239.981l0,0.011
	V240h0c-0.122,92.662,74.896,167.878,167.558,168c34.534,0.045,68.241-10.567,96.52-30.388
	C287.718,430.131,212.454,463.996,127.998,464v16c154.395-0.008,280.004-107.672,280.004-239.992H407.997z M87.998,239.995l0-0.014
	c2.76-81.201,70.824-144.79,152.025-142.029s144.789,70.824,142.029,152.025s-70.824,144.789-152.025,142.029
	C148.833,389.246,85.246,321.191,87.998,239.995z"/>
<g>
	<path style="fill:#66AAB5;" d="M239.998,376c-75.111,0-136-60.889-136-136s60.889-136,136-136v16c-66.274,0-120,53.726-120,120
		s53.726,120,120,120s120-53.726,120-120h16C375.914,315.076,315.074,375.916,239.998,376z"/>
	<path style="fill:#66AAB5;" d="M239.998,344v-16c48.601,0,88-39.399,88-88s-39.399-88-88-88s-88,39.399-88,88h-16
		c0-57.438,46.562-104,104-104s104,46.562,104,104S297.436,344,239.998,344z"/>
</g>
<g>
</g>
<g>
</g>
<g>
</g>
<g>
</g>
<g>
</g>
<g>
</g>
<g>
</g>
<g>
</g>
<g>
</g>
<g>
</g>
<g>
</g>
<g>
</g>
<g>
</g>
<g>
</g>
<g>
</g>
</svg>
