<?xml version="1.0" encoding="iso-8859-1"?>
<!-- Generator: Adobe Illustrator 19.0.0, SVG Export Plug-In . SVG Version: 6.00 Build 0)  -->
<svg version="1.1" id="Capa_1" xmlns="http://www.w3.org/2000/svg" xmlns:xlink="http://www.w3.org/1999/xlink" x="0px" y="0px"
	 viewBox="0 0 480 480" style="enable-background:new 0 0 480 480;" xml:space="preserve">
<path style="fill:#95EFF9;" d="M73.711,192h132.578C233.744,192,256,214.256,256,241.711l0,0v132.578
	C256,401.743,233.744,424,206.289,424c0,0,0,0,0,0H73.715C46.258,424,24,401.742,24,374.285l0,0V241.711
	C24,214.256,46.256,192,73.711,192L73.711,192z"/>
<path style="fill:#66AAB5;" d="M240,205.254v150.749c-0.003,33.136-26.865,59.996-60.001,59.997H46.726
	c8.031,5.226,17.408,8.005,26.989,8h132.569c27.455-0.001,49.713-22.256,49.715-49.711V241.711
	C256.002,227.855,250.199,214.633,240,205.254L240,205.254z"/>
<g>
	<path style="fill:#6CC3E1;" d="M206.285,192H73.715c-6.058,0.009-12.062,1.13-17.715,3.308V240c0,8.837,7.163,16,16,16
		s16-7.163,16-16c0-8.837,7.163-16,16-16s16,7.163,16,16v48c0,8.837,7.163,16,16,16s16-7.163,16-16v-48c0-8.837,7.163-16,16-16
		s16,7.163,16,16c0,8.837,7.163,16,16,16s16-7.163,16-16v-47.037C212.801,192.325,209.547,192.003,206.285,192z"/>
	<path style="fill:#6CC3E1;" d="M96,376c0,8.836-7.164,16-16,16c-8.836,0-16-7.164-16-16v-16c0-8.836,7.164-16,16-16
		c8.836,0,16,7.164,16,16V376z"/>
	<path style="fill:#6CC3E1;" d="M456,356.297V30.765c-0.696-17.673-15.587-31.436-33.26-30.74
		c-16.697,0.657-30.082,14.043-30.74,30.74v325.531c-19.759,17.673-21.45,48.018-3.777,67.777
		c17.673,19.759,48.018,21.45,67.777,3.777c19.759-17.673,21.45-48.018,3.777-67.777C458.589,358.746,457.328,357.485,456,356.297z"
		/>
</g>
<g>
	<path style="fill:#66AAB5;" d="M0,464h480v16H0V464z"/>
	<path style="fill:#66AAB5;" d="M432,369.474V360h-16v9.474c-12.497,4.418-19.046,18.131-14.627,30.627
		c4.418,12.497,18.131,19.046,30.627,14.627c12.497-4.418,19.046-18.131,14.627-30.627C444.211,377.267,438.835,371.89,432,369.474z
		"/>
</g>
<g>
</g>
<g>
</g>
<g>
</g>
<g>
</g>
<g>
</g>
<g>
</g>
<g>
</g>
<g>
</g>
<g>
</g>
<g>
</g>
<g>
</g>
<g>
</g>
<g>
</g>
<g>
</g>
<g>
</g>
</svg>
