<?xml version="1.0" encoding="iso-8859-1"?>
<!-- Generator: Adobe Illustrator 19.0.0, SVG Export Plug-In . SVG Version: 6.00 Build 0)  -->
<svg version="1.1" id="Capa_1" xmlns="http://www.w3.org/2000/svg" xmlns:xlink="http://www.w3.org/1999/xlink" x="0px" y="0px"
	 viewBox="0 0 480 480" style="enable-background:new 0 0 480 480;" xml:space="preserve">
<path style="fill:#6CC3E1;" d="M456,356.297V30.765c-0.696-17.673-15.587-31.436-33.26-30.74
	c-16.697,0.657-30.082,14.043-30.74,30.74v325.531c-19.759,17.673-21.45,48.018-3.777,67.777
	c17.673,19.759,48.018,21.45,67.777,3.777c19.759-17.673,21.45-48.018,3.777-67.777C458.589,358.746,457.328,357.485,456,356.297z"
	/>
<path style="fill:#66AAB5;" d="M0,464h480v16H0V464z"/>
<g>
	<path style="fill:#6CC3E1;" d="M172.136,318.728l28.144,15.48l7.72-14.016L188.736,309.6l19.256-10.592l-7.704-14.016
		l-20.144,11.08V274.4h-16v30.472l-32,17.6v-34.536L160,272.608l-7.72-14.016l-20.136,11.08V248h-16v21.672L96,258.592l-7.72,14.016
		l27.864,15.328v34.536l-32-17.6V274.4h-16v21.672l-20.152-11.08l-7.704,14.016L59.544,309.6L40.28,320.192L48,334.208l28.144-15.48
		l31.4,17.272l-31.4,17.272L48,337.792l-7.72,14.016L59.544,362.4l-19.256,10.592l7.704,14.016l20.152-11.08V397.6h16v-30.472
		l32-17.6v34.536L88.28,399.392L96,413.408l20.144-11.08V424h16v-21.672l20.136,11.08l7.72-14.016l-27.856-15.328v-34.536l32,17.6
		V397.6h16v-21.672l20.144,11.08l7.704-14.016L188.736,362.4L208,351.808l-7.72-14.016l-28.144,15.48L140.736,336L172.136,318.728z"
		/>
	<path style="fill:#6CC3E1;" d="M172.136,121.272L140.736,104l31.4-17.272l28.144,15.48L208,88.192L188.736,77.6l19.256-10.592
		l-7.704-14.016l-20.144,11.08V42.4h-16v30.472l-32,17.6V55.936L160,40.608l-7.72-14.016l-20.136,11.08V16h-16v21.672L96,26.592
		l-7.72,14.016l27.864,15.328v34.536l-32-17.6V42.4h-16v21.672l-20.152-11.08l-7.704,14.016L59.544,77.6L40.28,88.192L48,102.208
		l28.144-15.48l31.4,17.272l-31.4,17.272L48,105.792l-7.72,14.016L59.544,130.4l-19.256,10.592l7.704,14.016l20.152-11.08V165.6h16
		v-30.472l32-17.6v34.536L88.28,167.392L96,181.408l20.144-11.08V192h16v-21.672l20.136,11.08l7.72-14.016l-27.856-15.328v-34.536
		l32,17.6V165.6h16v-21.672l20.144,11.08l7.704-14.016L188.736,130.4L208,119.808l-7.72-14.016L172.136,121.272z"/>
</g>
<path style="fill:#66AAB5;" d="M432,369.474V232h-16v137.474c-12.497,4.418-19.046,18.131-14.627,30.627
	c4.418,12.497,18.131,19.046,30.627,14.627c12.497-4.418,19.046-18.131,14.627-30.627C444.211,377.267,438.835,371.89,432,369.474z"
	/>
<g>
</g>
<g>
</g>
<g>
</g>
<g>
</g>
<g>
</g>
<g>
</g>
<g>
</g>
<g>
</g>
<g>
</g>
<g>
</g>
<g>
</g>
<g>
</g>
<g>
</g>
<g>
</g>
<g>
</g>
</svg>
