<?xml version="1.0" encoding="iso-8859-1"?>
<!-- Generator: Adobe Illustrator 19.0.0, SVG Export Plug-In . SVG Version: 6.00 Build 0)  -->
<svg version="1.1" id="Capa_1" xmlns="http://www.w3.org/2000/svg" xmlns:xlink="http://www.w3.org/1999/xlink" x="0px" y="0px"
	 viewBox="0 0 480 480" style="enable-background:new 0 0 480 480;" xml:space="preserve">
<g>
	<path style="fill:#6CC3E1;" d="M135.992,318.728l28.152,15.48l7.712-14.016L152.592,309.6l19.256-10.592l-7.696-14.016L144,296.072
		V274.4h-16v30.472l-32,17.6v-34.536l27.856-15.328l-7.712-14.016L96,269.672V248H80v21.672l-20.144-11.08l-7.712,14.016L80,287.936
		v34.536l-32-17.6V274.4H32v21.672l-20.152-11.08l-7.696,14.016L23.408,309.6L4.144,320.192l7.712,14.016l28.152-15.48L71.408,336
		l-31.4,17.272l-28.152-15.48l-7.712,14.016L23.408,362.4L4.152,372.992l7.696,14.016L32,375.928V397.6h16v-30.472l32-17.6v34.536
		l-27.856,15.328l7.712,14.016L80,402.328V424h16v-21.672l20.144,11.08l7.712-14.016L96,384.064v-34.536l32,17.6V397.6h16v-21.672
		l20.152,11.08l7.696-14.016L152.592,362.4l19.264-10.592l-7.712-14.016l-28.152,15.48L104.592,336L135.992,318.728z"/>
	<path style="fill:#6CC3E1;" d="M135.992,86.728l28.152,15.48l7.712-14.016L152.592,77.6l19.256-10.592l-7.696-14.016L144,64.072
		V42.4h-16v30.472l-32,17.6V55.936l27.856-15.328l-7.712-14.016L96,37.672V16H80v21.672l-20.144-11.08l-7.712,14.016L80,55.936
		v34.536l-32-17.6V42.4H32v21.672l-20.152-11.08L4.152,67.008L23.408,77.6L4.144,88.192l7.712,14.016l28.152-15.48L71.408,104
		l-31.4,17.272l-28.152-15.48l-7.712,14.016L23.408,130.4L4.152,140.992l7.696,14.016L32,143.928V165.6h16v-30.472l32-17.6v34.536
		l-27.856,15.328l7.712,14.016L80,170.328V192h16v-21.672l20.144,11.08l7.712-14.016L96,152.064v-34.536l32,17.6V165.6h16v-21.672
		l20.152,11.08l7.696-14.016L152.592,130.4l19.264-10.592l-7.712-14.016l-28.152,15.48L104.592,104L135.992,86.728z"/>
	<path style="fill:#6CC3E1;" d="M319.992,318.728l28.152,15.48l7.712-14.016L336.592,309.6l19.256-10.592l-7.696-14.016L328,296.072
		V274.4h-16v30.472l-32,17.6v-34.536l27.856-15.328l-7.712-14.016L280,269.672V248h-16v21.672l-20.144-11.08l-7.712,14.016
		L264,287.936v34.536l-32-17.6V274.4h-16v21.672l-20.152-11.08l-7.696,14.016l19.256,10.592l-19.264,10.592l7.712,14.016
		l28.152-15.48l31.4,17.272l-31.4,17.272l-28.152-15.48l-7.712,14.016l19.264,10.592l-19.256,10.592l7.696,14.016L216,375.928V397.6
		h16v-30.472l32-17.6v34.536l-27.856,15.328l7.712,14.016L264,402.328V424h16v-21.672l20.144,11.08l7.712-14.016L280,384.064
		v-34.536l32,17.6V397.6h16v-21.672l20.152,11.08l7.696-14.016L336.592,362.4l19.264-10.592l-7.712-14.016l-28.152,15.48
		L288.592,336L319.992,318.728z"/>
	<path style="fill:#6CC3E1;" d="M319.992,121.272L288.592,104l31.4-17.272l28.152,15.48l7.712-14.016L336.592,77.6l19.256-10.592
		l-7.696-14.016L328,64.072V42.4h-16v30.472l-32,17.6V55.936l27.856-15.328l-7.712-14.016L280,37.672V16h-16v21.672l-20.144-11.08
		l-7.712,14.016L264,55.936v34.536l-32-17.6V42.4h-16v21.672l-20.152-11.08l-7.696,14.016L207.408,77.6l-19.264,10.592l7.712,14.016
		l28.152-15.48l31.4,17.272l-31.4,17.272l-28.152-15.48l-7.712,14.016l19.264,10.592l-19.256,10.592l7.696,14.016L216,143.928V165.6
		h16v-30.472l32-17.6v34.536l-27.856,15.328l7.712,14.016L264,170.328V192h16v-21.672l20.144,11.08l7.712-14.016L280,152.064
		v-34.536l32,17.6V165.6h16v-21.672l20.152,11.08l7.696-14.016L336.592,130.4l19.264-10.592l-7.712-14.016L319.992,121.272z"/>
	<path style="fill:#6CC3E1;" d="M456,356.297V30.765c-0.696-17.673-15.587-31.436-33.26-30.74
		c-16.697,0.657-30.082,14.043-30.74,30.74v325.531c-19.759,17.673-21.45,48.018-3.777,67.777
		c17.673,19.759,48.018,21.45,67.777,3.777c19.759-17.673,21.45-48.018,3.777-67.777C458.589,358.746,457.328,357.485,456,356.297z"
		/>
</g>
<g>
	<path style="fill:#66AAB5;" d="M0,464h480v16H0V464z"/>
	<path style="fill:#66AAB5;" d="M432,369.474V232h-16v137.474c-12.497,4.418-19.046,18.131-14.627,30.627
		c4.418,12.497,18.131,19.046,30.627,14.627c12.497-4.418,19.046-18.131,14.627-30.627C444.211,377.267,438.835,371.89,432,369.474z
		"/>
</g>
<g>
</g>
<g>
</g>
<g>
</g>
<g>
</g>
<g>
</g>
<g>
</g>
<g>
</g>
<g>
</g>
<g>
</g>
<g>
</g>
<g>
</g>
<g>
</g>
<g>
</g>
<g>
</g>
<g>
</g>
</svg>
