<?xml version="1.0" encoding="iso-8859-1"?>
<!-- Generator: Adobe Illustrator 19.0.0, SVG Export Plug-In . SVG Version: 6.00 Build 0)  -->
<svg version="1.1" id="Capa_1" xmlns="http://www.w3.org/2000/svg" xmlns:xlink="http://www.w3.org/1999/xlink" x="0px" y="0px"
	 viewBox="0 0 480 480" style="enable-background:new 0 0 480 480;" xml:space="preserve">
<circle style="fill:#DB735C;" cx="240" cy="240" r="160"/>
<g>
	<path style="fill:#D88F5D;" d="M80,240c-0.008,88.357,71.613,159.992,159.97,160c0.01,0,0.02,0,0.03,0V80
		c-88.357-0.008-159.992,71.613-160,159.97C80,239.98,80,239.99,80,240z"/>
	<path style="fill:#D88F5D;" d="M232,0h16v55.996h-16V0z"/>
</g>
<path style="fill:#DB735C;" d="M232,424.004h16V480h-16V424.004z"/>
<path style="fill:#D88F5D;" d="M0,232h56v16H0V232z"/>
<g>
	<path style="fill:#DB735C;" d="M424,232h56v16h-56V232z"/>
	<path style="fill:#DB735C;" d="M364.457,104.236l39.596-39.596l11.313,11.313l-39.596,39.596L364.457,104.236z"/>
</g>
<g>
	<path style="fill:#D88F5D;" d="M64.643,404.063l39.596-39.596l11.313,11.313l-39.596,39.596L64.643,404.063z"/>
	<path style="fill:#D88F5D;" d="M64.64,75.951l11.313-11.312l39.594,39.598l-11.313,11.312L64.64,75.951z"/>
</g>
<path style="fill:#DB735C;" d="M364.425,375.767l11.313-11.312l39.594,39.598l-11.313,11.312L364.425,375.767z"/>
<g>
</g>
<g>
</g>
<g>
</g>
<g>
</g>
<g>
</g>
<g>
</g>
<g>
</g>
<g>
</g>
<g>
</g>
<g>
</g>
<g>
</g>
<g>
</g>
<g>
</g>
<g>
</g>
<g>
</g>
</svg>
