<?xml version="1.0" encoding="iso-8859-1"?>
<!-- Generator: Adobe Illustrator 19.0.0, SVG Export Plug-In . SVG Version: 6.00 Build 0)  -->
<svg version="1.1" id="Capa_1" xmlns="http://www.w3.org/2000/svg" xmlns:xlink="http://www.w3.org/1999/xlink" x="0px" y="0px"
	 viewBox="0 0 472 472" style="enable-background:new 0 0 472 472;" xml:space="preserve">
<path style="fill:#DCDCDA;" d="M376,63.5c-10.969-41.523-58.539-63-112-63c-52.824,0-92.355,22.218-104,63
	c-32.461,0.434-63.05,15.446-72,40c-2.45-0.183-5.496,0-8,0c-45.082,0-80,32.722-80,72s34.918,72,80,72h280
	c57.313-1.957,104-46.203,104-96C464,105.981,426.317,71.183,376,63.5z"/>
<path style="fill:#BEE1EA;" d="M88,311.5H67.312l14.344-14.344l-11.312-11.312L56,300.188V279.5H40v20.688l-14.344-14.344
	l-11.312,11.312L28.688,311.5H8v16h20.688l-14.344,14.344l11.312,11.312L40,338.812V359.5h16v-20.688l14.344,14.344l11.312-11.312
	L67.312,327.5H88L88,311.5z"/>
<path style="fill:#6CC3E1;" d="M120,423.5H99.312l14.344-14.344l-11.312-11.312L88,412.188V391.5H72v20.688l-14.344-14.344
	l-11.312,11.312L60.688,423.5H40v16h20.688l-14.344,14.344l11.312,11.312L72,450.812V471.5h16v-20.688l14.344,14.344l11.312-11.312
	L99.312,439.5H120L120,423.5z"/>
<path style="fill:#BEE1EA;" d="M224,311.5h-20.688l14.344-14.344l-11.312-11.312L192,300.188V279.5h-16v20.688l-14.344-14.344
	l-11.312,11.312l14.344,14.344H144v16h20.688l-14.344,14.344l11.312,11.312L176,338.812V359.5h16v-20.688l14.344,14.344
	l11.312-11.312L203.312,327.5H224V311.5z"/>
<path style="fill:#6CC3E1;" d="M256,423.5h-20.688l14.344-14.344l-11.312-11.312L224,412.188V391.5h-16v20.688l-14.344-14.344
	l-11.312,11.312l14.344,14.344H176v16h20.688l-14.344,14.344l11.312,11.312L208,450.812V471.5h16v-20.688l14.344,14.344
	l11.312-11.312L235.312,439.5H256V423.5z"/>
<path style="fill:#BFBFBF;" d="M447.015,102.577c0.624,4.28,0.953,8.598,0.985,12.923c0,56.022-49.907,105.798-111.172,108H37.517
	c-6.463-0.013-12.907-0.713-19.223-2.086c16,16.964,38.389,26.429,61.706,26.086h280c57.313-1.957,104-46.203,104-96
	C463.995,133.747,458.012,116.513,447.015,102.577z"/>
<path style="fill:#6CC3E1;" d="M416,471.5v-16c8.837,0,16-7.163,16-16s-7.163-16-16-16H296v-16h120c17.673,0,32,14.327,32,32
	S433.673,471.5,416,471.5z"/>
<g>
	<path style="fill:#BEE1EA;" d="M416,327.5H296v-16h120c8.837,0,16-7.163,16-16s-7.163-16-16-16v-16c17.673,0,32,14.327,32,32
		S433.673,327.5,416,327.5z"/>
	<path style="fill:#BEE1EA;" d="M440,359.5H296v-16h144c8.833-0.009,15.991-7.167,16-16h16C471.98,345.165,457.665,359.48,440,359.5
		z"/>
</g>
<path style="fill:#6CC3E1;" d="M472,407.5h-16c-0.009-8.833-7.167-15.991-16-16H296v-16h144
	C457.665,375.52,471.98,389.835,472,407.5z"/>
<g>
</g>
<g>
</g>
<g>
</g>
<g>
</g>
<g>
</g>
<g>
</g>
<g>
</g>
<g>
</g>
<g>
</g>
<g>
</g>
<g>
</g>
<g>
</g>
<g>
</g>
<g>
</g>
<g>
</g>
</svg>
