<?xml version="1.0" encoding="iso-8859-1"?>
<!-- Generator: Adobe Illustrator 19.0.0, SVG Export Plug-In . SVG Version: 6.00 Build 0)  -->
<svg version="1.1" id="Capa_1" xmlns="http://www.w3.org/2000/svg" xmlns:xlink="http://www.w3.org/1999/xlink" x="0px" y="0px"
	 viewBox="0 0 480.001 480.001" style="enable-background:new 0 0 480.001 480.001;" xml:space="preserve">
<path style="fill:#846328;" d="M148.27,144H200v-16h-48V88h-16v45.703L75.73,200h-2.272l-26.572-9.964l0.809-0.231l-16-56
	l-15.391,4.391l12.919,45.217l-18.411-6.904l-5.625,14.984L64,213.547V472h16V278.366l97.797-22.568l-3.367-15.641l-24.413,4.882
	c-0.664,0.133-1.31-0.298-1.443-0.962c-0.042-0.209-0.028-0.426,0.039-0.628l10.585-31.754c0.214-0.642-0.133-1.336-0.775-1.551
	l-12.846-4.286c-0.643-0.215-1.337,0.133-1.552,0.775c0,0,0,0,0,0L129.6,249.895c-0.135,0.405-0.471,0.711-0.887,0.807L80,261.942
	v-42.845L148.27,144z"/>
<g>
	<ellipse style="fill:#D3AC5C;" cx="156" cy="336" rx="12" ry="24"/>
	<ellipse style="fill:#D3AC5C;" cx="20" cy="256" rx="12" ry="24"/>
	<ellipse style="fill:#D3AC5C;" cx="120" cy="452" rx="24" ry="12"/>
	<ellipse style="fill:#D3AC5C;" cx="224" cy="452" rx="24" ry="12"/>
</g>
<g>
	<ellipse style="fill:#60A867;" cx="144" cy="80" rx="12" ry="24"/>
	<ellipse style="fill:#60A867;" cx="216" cy="136" rx="24" ry="12"/>
</g>
<path style="fill:#D3AC5C;" d="M178.477,267.619c-12.904-6.073-20.878-16.199-17.827-22.621c3.05-6.41,15.978-6.694,28.875-0.616
	c12.903,6.072,20.871,16.206,17.826,22.622C204.301,273.414,191.374,273.697,178.477,267.619z"/>
<ellipse transform="matrix(-0.2989 -0.9543 0.9543 -0.2989 -88.5386 174.9641)" style="fill:#60A867;" cx="20.001" cy="120.005" rx="24" ry="12"/>
<g>
	<path style="fill:#6CC3E1;" d="M464,144c-5.976,0.117-11.906-1.061-17.383-3.453c-7.321-3.083-15.577-3.083-22.898,0
		c-11.126,4.604-23.624,4.604-34.75,0c-7.297-3.083-15.531-3.083-22.828,0c-11.118,4.604-23.609,4.604-34.727,0
		c-3.577-1.637-7.482-2.428-11.414-2.312v-16c5.971-0.119,11.897,1.062,17.367,3.461c7.296,3.076,15.526,3.073,22.82-0.008
		c11.12-4.604,23.614-4.604,34.734,0c7.308,3.083,15.552,3.083,22.859,0c11.134-4.604,23.639-4.604,34.773,0
		c3.589,1.633,7.504,2.424,11.445,2.313L464,144z"/>
	<path style="fill:#6CC3E1;" d="M464,176c-5.976,0.117-11.906-1.061-17.383-3.453c-7.321-3.083-15.577-3.083-22.898,0
		c-11.126,4.604-23.624,4.604-34.75,0c-7.297-3.083-15.531-3.083-22.828,0c-11.118,4.604-23.609,4.604-34.727,0
		c-3.577-1.637-7.482-2.428-11.414-2.312v-16c5.971-0.119,11.897,1.062,17.367,3.461c7.296,3.076,15.526,3.073,22.82-0.008
		c11.12-4.604,23.614-4.604,34.734,0c7.308,3.083,15.552,3.083,22.859,0c11.134-4.604,23.639-4.604,34.773,0
		c3.589,1.633,7.504,2.424,11.445,2.313L464,176z"/>
</g>
<path style="fill:#EEEEED;" d="M448,32c-5.013-18.193-21.151-31.103-40-32c-19.813,0-35.633,8.703-40,24
	c-12.172,0.164-28.641,6.789-32,16c-0.922-0.07,0.938,0,0,0c-17.113,1.284-30.716,14.887-32,32c0,14.734,15.094,24,32,24h104
	c21.492-0.734,40-13.328,40-32C480,46.93,466.867,34.884,448,32z"/>
<path style="fill:#DDDDD9;" d="M471.908,43.663C470.94,64.901,449.547,79.152,424.727,80H305.812
	c6.135,10.71,17.882,16.936,30.188,16h104c21.492-0.734,40-13.328,40-32C480.061,56.425,477.156,49.126,471.908,43.663z"/>
<path style="fill:#EDE783;" d="M344,344h112v128H344V344z"/>
<path style="fill:#EAB744;" d="M400,272l-80,80h160L400,272z"/>
<path style="fill:#7F5818;" d="M0,464h480v16H0V464z"/>
<g>
</g>
<g>
</g>
<g>
</g>
<g>
</g>
<g>
</g>
<g>
</g>
<g>
</g>
<g>
</g>
<g>
</g>
<g>
</g>
<g>
</g>
<g>
</g>
<g>
</g>
<g>
</g>
<g>
</g>
</svg>
